<!--?xml version="1.0" standalone="no"?-->
              <svg id="sw-js-blob-svg" viewBox="0 0 100 100" xmlns="http://www.w3.org/2000/svg" version="1.1">
                    <defs> 
                        <linearGradient id="sw-gradient" x1="0" x2="1" y1="1" y2="0">
                            <stop id="stop1" stop-color="rgba(107.406, 99.985, 210.674, 1)" offset="0%"></stop>
                            <stop id="stop2" stop-color="rgba(111.534, 130.719, 224.335, 1)" offset="100%"></stop>
                        </linearGradient>
                    </defs>
                <path fill="url(#sw-gradient)" d="M25.2,-30.1C33,-23.5,39.9,-15.9,41.3,-7.4C42.7,1.1,38.6,10.5,32.7,17.3C26.9,24.1,19.4,28.3,11.4,30.9C3.5,33.6,-4.8,34.7,-11.6,32.1C-18.5,29.6,-24,23.3,-29.1,16.1C-34.1,8.8,-38.6,0.6,-37.7,-7C-36.8,-14.7,-30.5,-21.7,-23.3,-28.4C-16.1,-35.1,-8.1,-41.5,0.3,-41.9C8.7,-42.2,17.4,-36.7,25.2,-30.1Z" width="100%" height="100%" transform="translate(50 50)" stroke-width="0" style="transition: all 0.3s ease 0s;" stroke="url(#sw-gradient)"></path>
              </svg>